<?xml version="1.0" standalone="no"?>
<!DOCTYPE svg PUBLIC "-//W3C//DTD SVG 20010904//EN"
 "http://www.w3.org/TR/2001/REC-SVG-20010904/DTD/svg10.dtd">
<svg version="1.0" xmlns="http://www.w3.org/2000/svg"
 width="256.000000pt" height="256.000000pt" viewBox="0 0 256.000000 256.000000"
 preserveAspectRatio="xMidYMid meet">
<metadata>
Created by potrace 1.11, written by Peter Selinger 2001-2013
</metadata>
<g transform="translate(0.000000,256.000000) scale(0.100000,-0.100000)"
fill="#000000" stroke="none">
<path d="M1140 2554 c-381 -49 -715 -253 -927 -569 -85 -126 -154 -293 -189
-455 -26 -119 -26 -381 0 -500 110 -511 495 -896 1006 -1006 119 -26 381 -26
500 0 338 73 626 268 817 551 85 126 154 293 189 455 26 119 26 381 0 500 -35
162 -104 329 -189 455 -56 83 -77 108 -170 203 -166 169 -383 288 -627 343
-83 19 -331 33 -410 23z m273 -409 c206 -54 367 -231 399 -438 27 -175 -28
-335 -157 -463 -110 -109 -219 -154 -376 -154 -232 0 -439 150 -511 370 -31
97 -29 241 4 337 59 168 203 302 371 348 69 18 199 19 270 0z m-579 -1009 c66
-60 157 -112 251 -143 101 -32 262 -36 365 -9 90 24 205 87 273 147 51 46 60
50 89 44 154 -34 268 -177 325 -410 31 -123 32 -119 -64 -224 -132 -145 -333
-266 -528 -317 -130 -35 -351 -39 -485 -11 -228 49 -460 189 -605 367 l-58 71
26 107 c47 190 133 329 238 383 97 49 115 49 173 -5z"/>
</g>
</svg>
